<svg xmlns="http://www.w3.org/2000/svg" xmlns:xlink="http://www.w3.org/1999/xlink" width="168.161" height="30.096" viewBox="0 0 1341 240">
  <defs>
    <style>
      .cls-1 {
        fill: #fff;
      }

      .cls-1, .cls-2 {
        fill-rule: evenodd;
      }

      .cls-2 {
        fill: url(#linear-gradient);
      }
    </style>
    <linearGradient id="linear-gradient" x1="83.781" y1="212.5" x2="83.781" y2="27.531" gradientUnits="userSpaceOnUse">
      <stop offset="0" stop-color="#ff8e44"/>
      <stop offset="0.5" stop-color="#f91362"/>
      <stop offset="1" stop-color="#35126a"/>
    </linearGradient>
  </defs>
  <path id="cloudspec" class="cls-1" d="M278.916,198.672a59.368,59.368,0,0,0,19-10.125,58.515,58.515,0,0,0,13.75-15.875,60.566,60.566,0,0,0,7.5-20.75h-37.5a21.7,21.7,0,0,1-9,12.875q-7,4.875-17,4.875-12,0-18.75-5.5t-6.75-15.5v-35.25q0-10,6.75-15.625t18.75-5.625q10.248,0,17.25,4.75a20.177,20.177,0,0,1,8.75,12.75h37.5a60.628,60.628,0,0,0-7.5-20.75,56.906,56.906,0,0,0-13.75-15.75,60.921,60.921,0,0,0-19-10,74.738,74.738,0,0,0-23.25-3.5,81.528,81.528,0,0,0-25.875,3.875,59.418,59.418,0,0,0-19.875,10.875A47.948,47.948,0,0,0,197.166,91.3a52.774,52.774,0,0,0-4.5,22.125v35.25a52.748,52.748,0,0,0,4.5,22.125,47.878,47.878,0,0,0,12.75,16.875,57.665,57.665,0,0,0,19.875,10.75,84,84,0,0,0,25.875,3.75A74.741,74.741,0,0,0,278.916,198.672Zm8.747-179.5v33.75h42.5v101.25q0,22.254,12.625,34.875t34.875,12.625h45v-33.75h-41.25q-6.5,0-10.125-3.625t-3.625-10.125v-135h-80Zm180.248,97.25q0-10.248,6.875-16.25t18.625-6q11.748,0,18.625,6t6.875,16.25v32.75q0,10.254-6.875,16.25t-18.625,6q-11.754,0-18.625-6t-6.875-16.25v-32.75Zm-37.5,32.75a53.86,53.86,0,0,0,4.5,22.125,50.963,50.963,0,0,0,12.75,17.5,57.4,57.4,0,0,0,19.875,11.375,85.689,85.689,0,0,0,51.75,0A57.4,57.4,0,0,0,539.161,188.8a50.963,50.963,0,0,0,12.75-17.5,53.86,53.86,0,0,0,4.5-22.125v-32.75a53.861,53.861,0,0,0-4.5-22.125,49.77,49.77,0,0,0-12.75-17.375,58.628,58.628,0,0,0-19.875-11.25,85.689,85.689,0,0,0-51.75,0,58.628,58.628,0,0,0-19.875,11.25A49.77,49.77,0,0,0,434.911,94.3a53.861,53.861,0,0,0-4.5,22.125v32.75Zm133.248-1q0,26.25,15.375,41.125t43.375,14.875q27.5,0,43.125-14.75t15.625-41.25v-84h-37.5v83.75q0,23.754-21.25,23.75t-21.25-23.75V64.172h-37.5v84Zm124.747,3a72.142,72.142,0,0,0,3.375,22.875,48.5,48.5,0,0,0,9.75,17.25,43.627,43.627,0,0,0,15.25,11,48.535,48.535,0,0,0,19.625,3.875q14.748,0,24.125-7t11.375-19.5h2.5v24h36.25V21.172h-37.5v45q0,3.252.125,7.375a76.218,76.218,0,0,0,.625,7.875q0.246,4.254.5,8.5h-2.5a28.848,28.848,0,0,0-11.375-19.25q-9.375-7-24.125-7a49.915,49.915,0,0,0-19.625,3.75,43.029,43.029,0,0,0-15.25,10.75,47.4,47.4,0,0,0-9.75,17,69.3,69.3,0,0,0-3.375,22.25v33.75Zm43.625,15.75q-6.127-6.5-6.125-17v-31.25q0-10.5,6.375-16.5t17.125-6q10.748,0,17.25,6.125t6.5,16.375v32.5q0,9.75-6.25,16t-17.5,6.25Q738.156,173.422,732.031,166.922ZM887.577,204.75q28.248,0,43-10.875t14.75-32.125q0-38-51.75-44l-20-2.25q-17-2-17-14,0-12.5,18.5-12.5h12.5q15.246,0,18,11h37.5q-2.25-18.75-16.375-28.25t-39.125-9.5h-12.5q-26.5,0-40.625,10.75t-14.125,31q0,19.254,12.125,29.625t37.875,13.125l18.75,2q20,2.25,20,14.5a12.232,12.232,0,0,1-5.5,10.75q-5.5,3.75-16,3.75h-12.5q-7.752,0-12.875-3a14.745,14.745,0,0,1-6.875-8.75h-37.5q2.5,19,17,28.875t40.25,9.875h12.5Zm64.747-144V239.5h37.5V198.25q0-8-.5-15t-0.75-9h2.5q2,12.5,11.375,19.5t24.12,7a48.273,48.273,0,0,0,19.75-3.875,43.888,43.888,0,0,0,15.13-11,48.5,48.5,0,0,0,9.75-17.25,72.146,72.146,0,0,0,3.37-22.875V112a69.3,69.3,0,0,0-3.37-22.25,47.4,47.4,0,0,0-9.75-17A43.269,43.269,0,0,0,1046.32,62a49.647,49.647,0,0,0-19.75-3.75q-14.745,0-24.12,7A28.83,28.83,0,0,0,991.075,84.5h-2.5V60.75h-36.25Zm37.5,52.5q0-10.248,6.5-16.375t17.246-6.125q10.755,0,17.13,6t6.37,16.5V144.5q0,10.5-6.12,17-6.135,6.5-17.38,6.5t-17.5-6.25q-6.252-6.246-6.25-16v-32.5ZM1166.2,201.875a65.154,65.154,0,0,0,18.12-8.125,54.819,54.819,0,0,0,13.63-12.625,44.507,44.507,0,0,0,7.87-16.375h-36.75q-2.25,5.25-8.75,8.25a37.381,37.381,0,0,1-15.75,3q-12.495,0-19.25-6.875t-6.75-19.375v-7.5h88.5v-25a54.492,54.492,0,0,0-4.5-22.375A49.771,49.771,0,0,0,1189.82,77.5a58.8,58.8,0,0,0-19.75-11.25,77.313,77.313,0,0,0-25.5-4,81.5,81.5,0,0,0-25.87,3.875,57.085,57.085,0,0,0-19.88,11.125,50.1,50.1,0,0,0-12.75,17.25,54.253,54.253,0,0,0-4.5,22.5v32.75a55.35,55.35,0,0,0,4.5,22.5,48.248,48.248,0,0,0,12.75,17.375,59.753,59.753,0,0,0,19.88,11.125A84.338,84.338,0,0,0,1166.2,201.875Zm-47.63-82.125V117q0-12.246,6.88-19.125T1144.57,91q12.5,0,19.38,6.875,6.87,6.879,6.87,19.375v2.5h-52.25Zm181.5,80.5a59.411,59.411,0,0,0,19-10.125,58.549,58.549,0,0,0,13.75-15.875,60.733,60.733,0,0,0,7.5-20.75h-37.5a21.736,21.736,0,0,1-9,12.875q-7,4.875-17,4.875-12,0-18.75-5.5t-6.75-15.5V115q0-10,6.75-15.625t18.75-5.625q10.245,0,17.25,4.75a20.2,20.2,0,0,1,8.75,12.75h37.5a60.794,60.794,0,0,0-7.5-20.75,56.94,56.94,0,0,0-13.75-15.75,60.965,60.965,0,0,0-19-10,74.759,74.759,0,0,0-23.25-3.5,81.563,81.563,0,0,0-25.88,3.875A59.4,59.4,0,0,0,1231.07,76a47.949,47.949,0,0,0-12.75,16.875,52.773,52.773,0,0,0-4.5,22.125v35.25a52.748,52.748,0,0,0,4.5,22.125,47.878,47.878,0,0,0,12.75,16.875A57.641,57.641,0,0,0,1250.94,200a84.029,84.029,0,0,0,25.88,3.75A74.759,74.759,0,0,0,1300.07,200.25Z"/>
  <path id="icon" class="cls-2" d="M110.918,124.458a61.041,61.041,0,0,0-10.816,3.083L2.223,165.905V212.49l163.131-68.165V95.342L2.223,27.52V74.447L100.1,112.812q4.962,1.717,10.639,3.083"/>
</svg>
